<?xml version="1.0" encoding="UTF-8" standalone="no"?>
<svg
   aria-label="slash-3"
   class="f1-icon"
   viewBox="0 0 853.33502 213.256"
   version="1.1"
   id="svg1"
   sodipodi:docname="place_third.svg"
   inkscape:version="1.4 (e7c3feb1, 2024-10-09)"
   width="853.33502"
   height="213.256"
   xmlns:inkscape="http://www.inkscape.org/namespaces/inkscape"
   xmlns:sodipodi="http://sodipodi.sourceforge.net/DTD/sodipodi-0.dtd"
   xmlns="http://www.w3.org/2000/svg"
   xmlns:svg="http://www.w3.org/2000/svg">
  <defs
     id="defs1" />
  <sodipodi:namedview
     id="namedview1"
     pagecolor="#ffffff"
     bordercolor="#000000"
     borderopacity="0.25"
     inkscape:showpageshadow="2"
     inkscape:pageopacity="0.0"
     inkscape:pagecheckerboard="0"
     inkscape:deskcolor="#d1d1d1"
     inkscape:zoom="0.7421875"
     inkscape:cx="427.11579"
     inkscape:cy="63.326316"
     inkscape:window-width="1408"
     inkscape:window-height="997"
     inkscape:window-x="1366"
     inkscape:window-y="25"
     inkscape:window-maximized="0"
     inkscape:current-layer="svg1" />
  <path
     d="m 853.335,0 c 0,0 -132.752,133.356 -213.158,213.256 H 444.782 C 504.147,153.998 504.147,153.998 572.113,86.289 599.214,59.294 637.227,21.415 658.801,0 Z M 631.185,0 H 436.651 C 415.077,21.414 377.064,59.294 349.963,86.289 281.997,153.998 222.641,213.256 222.641,213.256 H 418.028 C 498.434,133.356 631.186,0 631.186,0 Z M 409.034,0 H 214.5 c -0.036,0.036 -0.071,0.071 -0.098,0.098 H 5.936 C 3.128,0.098 0,0.293 0,1.68 c 0,1.981 5.66,2.159 15.79,3.128 113.088,10.814 137.603,19.14 137.603,41.718 0,10.201 -3.608,17.78 -25.582,39.754 0.009,0 0.018,-0.009 0.018,-0.009 0,0.009 -0.009,0.009 -0.018,0.018 C 59.845,153.998 0.489,213.256 0.489,213.256 H 195.876 C 276.282,133.356 409.034,0 409.034,0 Z"
     id="path1"
     style="fill:#ffffff;fill-opacity:1" />
</svg>
