<?xml version="1.0" encoding="UTF-8" standalone="no"?>
<svg
   width="2426.5002"
   height="1269.9086"
   viewBox="0 0 187.08899 97.912998"
   version="1.1"
   id="svg2"
   sodipodi:docname="rolex.svg"
   inkscape:version="1.4 (e7c3feb1, 2024-10-09)"
   xmlns:inkscape="http://www.inkscape.org/namespaces/inkscape"
   xmlns:sodipodi="http://sodipodi.sourceforge.net/DTD/sodipodi-0.dtd"
   xmlns="http://www.w3.org/2000/svg"
   xmlns:svg="http://www.w3.org/2000/svg">
  <defs
     id="defs2" />
  <sodipodi:namedview
     id="namedview2"
     pagecolor="#ffffff"
     bordercolor="#000000"
     borderopacity="0.25"
     inkscape:showpageshadow="2"
     inkscape:pageopacity="0.0"
     inkscape:pagecheckerboard="0"
     inkscape:deskcolor="#d1d1d1"
     inkscape:zoom="0.3112"
     inkscape:cx="1214.653"
     inkscape:cy="636.24679"
     inkscape:window-width="1408"
     inkscape:window-height="997"
     inkscape:window-x="0"
     inkscape:window-y="25"
     inkscape:window-maximized="0"
     inkscape:current-layer="svg2" />
  <g
     id="g10"
     inkscape:label="Rolex"
     style="fill:#006039;fill-opacity:1">
    <path
       d="m 183.846,69.713 h 3.242 V 66.246 H 171.42 v 3.467 h 2.049 c 0.77,0.118 1.281,0.907 0.514,1.676 l -4.355,4.996 -3.459,-4.228 c -0.77,-0.896 -0.641,-2.435 0.768,-2.435 l 1.582,-0.01 v -3.467 h -17.853 v 3.467 c 4.484,0.128 5.604,0.651 7.223,2.733 l 7.254,8.807 -9.865,10.376 c -1.758,1.99 -1.926,2.168 -4.611,2.168 v 3.313 h 15.629 v -3.313 h -3.74 c -1.109,0 -1.342,-0.805 -1.342,-1.405 0,-0.602 0.787,-1.296 1.111,-1.713 l 5.508,-6.233 5.51,6.558 c 0.277,0.37 0.738,0.787 0.738,1.25 0,0.602 -0.508,1.544 -1.572,1.544 h -3.098 v 3.313 h 17.678 v -3.313 c -2.793,0 -3.043,-0.132 -5.549,-3.192 l -9.223,-10.889 6.277,-6.79 c 2.312,-2.452 3.217,-3.213 5.252,-3.213 z"
       id="path8"
       inkscape:label="X"
       style="fill:#006039;fill-opacity:1" />
    <path
       d="m 111.732,69.713 h 3.049 c 1.85,0 2.498,0.417 2.498,2.035 V 91.68 c 0,1.573 -0.648,2.174 -2.498,2.174 h -3.049 v 3.222 H 142.9 V 83.843 h -2.947 c 0,6.524 -2.584,9.955 -6.934,9.955 h -8.746 V 83.195 h 1.717 c 2.822,0 4.434,1.251 4.434,3.562 v 1.852 h 3.381 V 73.893 h -3.381 v 1.62 c 0,2.271 -1.703,3.655 -4.434,3.655 h -1.717 v -9.455 h 8.145 c 5.971,0 7.211,3.438 7.535,8.575 H 142.9 V 66.211 h -31.168 z"
       id="path4"
       inkscape:label="E"
       style="fill:#006039;fill-opacity:1" />
    <path
       d="m 98.021,93.798 h -7.386 v -21.91 c 0,-1.619 0.648,-2.174 2.499,-2.174 H 95.91 V 66.289 H 78.677 v 3.425 h 2.407 c 1.851,0 2.499,0.555 2.499,2.174 V 91.68 c 0,1.573 -0.648,2.175 -2.499,2.175 h -2.407 v 3.3 h 29.208 V 83.597 h -3.33 c -0.094,5.32 -0.057,10.201 -6.534,10.201 z"
       id="path5"
       inkscape:label="L"
       style="fill:#006039;fill-opacity:1" />
    <path
       id="path7"
       d="M 56.819047 65.348048 C 46.175047 65.348048 39.548968 73.555976 39.511968 81.277976 C 39.463968 91.272976 46.082976 97.566009 56.494976 97.566009 C 67.553976 97.566009 73.98698 91.365926 73.98698 80.767926 C 73.98698 72.914926 67.045047 65.348048 56.819047 65.348048 z M 56.864977 69.328008 C 62.324977 69.328008 65.518065 73.410987 65.518065 81.369987 C 65.519065 89.143987 62.279987 93.925028 56.586987 93.925028 C 51.033987 93.925028 47.840985 88.959067 47.840985 81.046067 C 47.840985 73.318067 51.172977 69.328008 56.864977 69.328008 z "
       inkscape:label="O"
       style="fill:#006039;fill-opacity:1" />
    <path
       id="path10"
       d="M 0 66.214998 L 0 69.713972 L 3.0330458 69.713972 C 4.8840458 69.713972 5.5319466 70.14195 5.5319466 71.76095 L 5.5319466 91.624004 C 5.5319466 93.197004 4.8840458 93.79793 3.0330458 93.79793 L 0 93.79793 L 0 97.080053 L 17.446074 97.080053 L 17.446074 93.79793 L 15.039034 93.79793 C 13.188034 93.79793 12.539982 93.197004 12.539982 91.624004 L 12.539982 82.781021 L 15.651938 82.781021 C 18.983938 82.781021 21.425056 84.644022 21.610056 88.161022 L 21.888046 92.221999 C 22.073046 95.923999 24.572064 97.912969 28.968064 97.912969 C 33.642064 97.912969 34.740052 95.645951 34.740052 90.832951 L 34.740052 88.24204 L 32.161941 88.24204 L 32.161941 88.242943 L 32.161941 89.82806 C 32.161941 91.72506 31.053967 92.696058 30.128967 92.696058 C 28.647967 92.696058 28.555983 90.89206 28.462983 89.82806 L 28.462983 88.546986 C 28.462983 84.318986 26.542053 82.652945 24.108053 81.371945 C 28.643053 80.308945 31.652041 77.599997 31.652041 73.850997 C 31.652041 68.991997 28.319946 66.214998 22.397946 66.214998 L 0 66.214998 z M 12.544048 69.687016 L 17.356021 69.687016 C 21.984021 69.687016 23.649053 71.22198 23.649053 74.22898 C 23.650053 77.32898 21.845986 78.764016 17.958986 78.764016 L 12.544048 78.764016 L 12.544048 69.687016 z "
       inkscape:label="R"
       style="fill:#006039;fill-opacity:1" />
  </g>
  <path
     id="path3"
     d="M 96.755982 0 C 95.215982 -3.6523033e-16 93.675952 1.0266977 93.675952 3.08003 C 93.675952 4.61703 94.809976 5.8569271 96.282976 6.0879271 L 93.425068 37.411982 L 85.118941 9.1259424 C 86.132565 8.5999759 86.768639 7.5529042 86.768058 6.410944 C 86.768058 3.6667662 83.450378 2.2930615 81.510187 4.233253 C 79.569995 6.1734446 80.94385 9.4909741 83.688028 9.4909741 C 83.732028 9.4909741 83.779958 9.4869504 83.822958 9.4849504 L 87.402949 39.07902 L 75.340037 17.546067 C 78.23195 15.278186 75.442237 10.778743 72.129295 12.336836 C 68.816354 13.894929 70.502911 18.913146 74.09405 18.132015 L 84.200037 48.429041 C 86.506037 55.475041 107.00202 55.603041 110.07602 48.429041 L 119.20302 17.137966 C 119.33002 17.153966 119.42606 17.176065 119.55706 17.176065 C 123.58977 17.104715 123.59168 11.091029 119.55902 11.017059 C 117.85798 11.017059 116.47899 12.395902 116.47899 14.096939 C 116.47899 15.168939 117.004 16.109045 117.834 16.661045 L 107.38903 39.077966 L 109.57094 9.2269887 C 113.49603 8.8944748 113.25017 3.0742103 109.31102 3.0740064 C 107.60998 3.0740064 106.23099 4.4529994 106.23099 6.1540364 C 106.23099 7.4930364 107.08493 8.6099856 108.27993 9.0349856 L 101.11197 38.181048 L 97.566009 6.0290462 C 98.90584 5.6775184 99.839012 4.4652049 99.836012 3.08003 C 99.836012 1.0266977 98.295982 3.6523033e-16 96.755982 0 z M 96.885038 45.299015 C 102.10804 45.299015 105.78705 46.211008 105.78705 48.153008 C 105.78705 50.095008 102.10704 51.668998 96.885038 51.668998 C 91.662038 51.668998 87.427947 50.095008 87.427947 48.153008 C 87.427947 46.211008 91.662038 45.299015 96.885038 45.299015 z "
     inkscape:label="Corona"
     style="fill:#a37e2c;fill-opacity:1" />
</svg>
