<?xml version="1.0" encoding="UTF-8" standalone="no"?>
<!-- Created with Inkscape (http://www.inkscape.org/) -->

<svg
   version="1.1"
   id="svg815"
   width="247.92641"
   height="247.92599"
   viewBox="0 0 247.92641 247.926"
   sodipodi:docname="WEC_Logo.svg"
   inkscape:version="1.4 (e7c3feb1, 2024-10-09)"
   xmlns:inkscape="http://www.inkscape.org/namespaces/inkscape"
   xmlns:sodipodi="http://sodipodi.sourceforge.net/DTD/sodipodi-0.dtd"
   xmlns="http://www.w3.org/2000/svg"
   xmlns:svg="http://www.w3.org/2000/svg"
   xmlns:rdf="http://www.w3.org/1999/02/22-rdf-syntax-ns#"
   xmlns:cc="http://creativecommons.org/ns#"
   xmlns:dc="http://purl.org/dc/elements/1.1/">
  <metadata
     id="metadata821">
    <rdf:RDF>
      <cc:Work
         rdf:about="">
        <dc:format>image/svg+xml</dc:format>
        <dc:type
           rdf:resource="http://purl.org/dc/dcmitype/StillImage" />
      </cc:Work>
    </rdf:RDF>
  </metadata>
  <defs
     id="defs819" />
  <sodipodi:namedview
     pagecolor="#ffffff"
     bordercolor="#666666"
     borderopacity="1"
     objecttolerance="10"
     gridtolerance="10"
     guidetolerance="10"
     inkscape:pageopacity="0"
     inkscape:pageshadow="2"
     inkscape:window-width="1408"
     inkscape:window-height="997"
     id="namedview817"
     showgrid="false"
     fit-margin-top="0"
     fit-margin-left="0"
     fit-margin-right="0"
     fit-margin-bottom="0"
     inkscape:zoom="2.998876"
     inkscape:cx="125.38031"
     inkscape:cy="123.37956"
     inkscape:window-x="0"
     inkscape:window-y="26"
     inkscape:window-maximized="0"
     inkscape:current-layer="svg815"
     inkscape:showpageshadow="2"
     inkscape:pagecheckerboard="0"
     inkscape:deskcolor="#d1d1d1"
     showguides="true" />
  <g
     id="g1"
     inkscape:label="Logo"
     transform="translate(3.4301758e-6,94.387245)"
     style="fill:#ff1e00;fill-opacity:0.995951">
    <path
       sodipodi:nodetypes="ccccc"
       inkscape:connector-curvature="0"
       id="path5102"
       d="m 229.29168,45.352074 c -3.24063,7.090015 -6.62453,11.656669 -25.11635,12.153073 -51.98772,-5.64973 -16.54812,-62.5333711 43.75107,-52.5282869 -1.23933,4.4530976 -4.48439,8.9457629 -7.15681,10.5326649 -66.66079,5.435749 -54.59503,41.590555 -11.47791,29.842549 z"
       style="fill:#ff1e00;fill-opacity:0.995951;stroke:#000000;stroke-width:0;stroke-linecap:butt;stroke-linejoin:round;stroke-miterlimit:4;stroke-dasharray:none;stroke-opacity:1"
       inkscape:label="C" />
    <path
       sodipodi:nodetypes="ccccc"
       inkscape:connector-curvature="0"
       id="path5100"
       d="m 103.87254,55.695533 57.3992,-0.286455 c 2.68307,-1.647128 5.24339,-8.631172 6.97229,-12.66374 l -45.62956,-0.162981 c -4.19783,1.329873 -12.51469,7.7245 -18.74193,13.113181 z"
       style="fill:#ff1e00;fill-opacity:0.995951;stroke:none;stroke-width:1.89012;stroke-linecap:butt;stroke-linejoin:round;stroke-miterlimit:4;stroke-dasharray:none;stroke-opacity:1"
       inkscape:label="E_low" />
    <path
       sodipodi:nodetypes="ccccc"
       inkscape:connector-curvature="0"
       id="path5098"
       d="m 142.5146,23.885179 33.45681,-0.02801 c -2.15694,4.501627 -4.82343,10.163735 -7.72937,12.168706 l -44.66032,-0.353967 c 3.88273,-3.937624 9.89306,-9.322564 18.93288,-11.786733 z"
       style="fill:#ff1e00;fill-opacity:0.995951;stroke:none;stroke-width:1.89012;stroke-linecap:butt;stroke-linejoin:round;stroke-miterlimit:4;stroke-dasharray:none;stroke-opacity:1"
       inkscape:label="E_middle" />
    <path
       sodipodi:nodetypes="cccczccccccccc"
       inkscape:connector-curvature="0"
       id="path5096"
       d="M 61.682382,10.818257 C 52.430606,5.8943698 3.7233881,12.843817 0,56.841336 c 37.314229,3.724399 42.184111,-4.35886 54.425631,-8.975453 -1.78839,3.448331 -4.740587,6.547521 -4.201275,10.69416 C 77.710293,61.307436 98.749893,54.714311 119.16348,33.925285 139.57708,13.136253 158.48442,9.1325611 174.40693,6.8079486 159.13259,9.8264881 148.19082,14.30136 146.18616,18.005095 l 34.53825,-1.147789 C 186.38874,11.586668 193.80351,6.4775758 201.31609,3.3917235 185.44562,-4.0037241 141.62768,0.53203914 121.70001,18.601578 100.72341,34.468708 88.70494,43.294188 67.411398,43.855574 L 74.286211,28.005298 C 59.540535,36.493953 47.859181,44.514045 23.297992,43.187187 24.545749,32.033259 34.074203,23.114777 62.255286,10.436324"
       style="fill:#ff1e00;fill-opacity:0.995951;stroke:none;stroke-width:1.89012;stroke-linecap:butt;stroke-linejoin:round;stroke-miterlimit:4;stroke-dasharray:none;stroke-opacity:1"
       inkscape:label="W" />
  </g>
</svg>
