<?xml version="1.0" encoding="UTF-8" standalone="no"?>
<svg
   aria-label="slash-1"
   class="f1-icon"
   viewBox="0 0 853.33398 213.257"
   version="1.1"
   id="svg1"
   sodipodi:docname="place_first.svg"
   inkscape:version="1.4 (e7c3feb1, 2024-10-09)"
   width="853.33398"
   height="213.257"
   xmlns:inkscape="http://www.inkscape.org/namespaces/inkscape"
   xmlns:sodipodi="http://sodipodi.sourceforge.net/DTD/sodipodi-0.dtd"
   xmlns="http://www.w3.org/2000/svg"
   xmlns:svg="http://www.w3.org/2000/svg">
  <defs
     id="defs1" />
  <sodipodi:namedview
     id="namedview1"
     pagecolor="#ffffff"
     bordercolor="#000000"
     borderopacity="0.25"
     inkscape:showpageshadow="2"
     inkscape:pageopacity="0.0"
     inkscape:pagecheckerboard="0"
     inkscape:deskcolor="#d1d1d1"
     inkscape:zoom="0.7421875"
     inkscape:cx="427.11579"
     inkscape:cy="63.326316"
     inkscape:window-width="1408"
     inkscape:window-height="997"
     inkscape:window-x="1366"
     inkscape:window-y="25"
     inkscape:window-maximized="0"
     inkscape:current-layer="svg1" />
  <path
     d="m 658.802,0 c -0.027,0.036 -0.071,0.071 -0.098,0.098 H 5.936 C 3.128,0.098 0,0.293 0,1.68 0,3.662 5.625,4.301 15.79,4.808 380.173,22.713 586.996,28.24 586.996,62.387 c 0,5.047 -0.302,9.303 -14.892,23.894 0.018,-0.009 0.027,-0.018 0.044,-0.018 -0.009,0.009 -0.027,0.018 -0.036,0.027 -67.966,67.709 -127.323,126.967 -127.323,126.967 H 640.176 C 720.582,133.357 853.334,10e-4 853.334,10e-4 H 658.8 Z"
     id="path1"
     style="fill:#ffffff;fill-opacity:1" />
</svg>
